<?xml version="1.0" encoding="UTF-8"?>
<svg id="Layer_1" data-name="Layer 1" xmlns="http://www.w3.org/2000/svg" viewBox="0 0 512 361.35">
  <defs>
    <style>
      .cls-1 {
        fill: #5e6569;
      }

      .cls-2 {
        fill: #fff;
      }

      .cls-3 {
        fill: #afdab7;
      }

      .cls-4 {
        fill: #a3dce4;
      }

      .cls-5 {
        fill: #1d252a;
      }
    </style>
  </defs>
  <g id="Generative_Object" data-name="Generative Object">
    <polygon class="cls-5" points="3.12 352.71 509.27 353.14 500.19 361.35 11.76 361.35 3.12 352.71"/>
    <g>
      <path class="cls-1" d="M461.72,12.1v221.31c-1.47,15.95-19.2,7.69-27.23,10.37-1.34.45-1.86.35-1.3,2.16,1.26,4.02,29.94-2.86,32.85,6.05l45.82,86.45c.38,4.32.21,6.3-3.89,8.21H3.98c-3.69-1.69-4.25-4.5-3.89-8.21l46.68-88.18c6.34-6,28.56-1.27,30.26-3.46,3.59-4.63-16.72-2.54-20.32-3.89s-4.94-5.2-6.48-8.21V10.81c2.49-5.32,5.49-8.32,10.81-10.81h389.88c5.43,1.88,10.36,6.17,10.81,12.1Z"/>
      <path class="cls-2" d="M73.14,259.34h364.81l19.45,35.01-400.69,2.16c-1.55-1.07-1.41-2.2-1.3-3.89.12-1.88,15.96-32.61,17.72-33.28Z"/>
      <path class="cls-2" d="M216.64,303.43h78.67c4.51,1.47,6.69,24.69,9.08,29.82l-3.03,3.03h-91.63c-.47-.71-1.92-1.56-2.16-2.16-.62-1.53,4.17-30.3,9.08-30.69Z"/>
      <g>
        <polygon class="cls-2" points="65.36 15.56 447.46 15.56 447.89 228.65 65.36 229.09 65.36 15.56"/>
        <g>
          <path class="cls-3" d="M251.22,28.53c135.17-5.55,135.41,183.5,11.24,189.32-130.21,6.11-146.56-183.76-11.24-189.32Z"/>
          <path class="cls-4" d="M165.64,121.89c4.78,2.98,9.13,7.43,13.83,10.37.75.47,5.42-.97,6.48,2.16,1.29,3.8-6.02,11.71-4.32,18.15.73,2.78,14.44,13.46,14.7,14.7.24,1.16-2.51,7.95-1.73,12.1.29,1.51,5.84,5.29,3.03,9.08-20-15.5-34.01-40.71-31.99-66.56Z"/>
          <path class="cls-4" d="M290.99,84.72c3.6-1.13,9.68,8.62,10.37,8.64,1.62.06,2.24-3.89,4.32-3.46.36.07,2.56,4.02,5.19,5.19s12.23-2.32,5.19,6.92c-2.82,1.11-12.61-2.94-13.83-2.59-1.13.32-1.85,5.87-8.64,1.73s-1.87-9.7-17.29-4.32c-1.28-7.61,9.87-14.82,17.29-7.78,2.12,4.54-5.75-1.09-6.05-.86-3.66,2.8,13.06,11.61,9.08,1.3-.26-.67-6-2.53-5.62-4.75Z"/>
          <path class="cls-4" d="M311.74,82.13c2.22-.19,2.21,3.15,3.46,3.46,3.38.85,3.82-7.22,7.35,3.89l-15.13.43c-.49-1.46,3.85-7.74,4.32-7.78Z"/>
          <path class="cls-3" d="M300.5,64.84c3-.38,2.09,3.27-.86,1.73-.86-.45.68-1.71.86-1.73Z"/>
          <g>
            <path class="cls-4" d="M243.44,37.17c17.92-1.84,40.11,1.35,56.19,9.51,3.43,1.74,26.73,16.76,10.37,12.97-4.76-1.1-7.67-6.85-16.43-5.19-1.1.21-14.48,9.5-12.97,12.1,14.47,4.99,8.01-.75,15.56-6.92.5,4.45-.82,5.14,3.03,9.08-3.29,4.15-9.23.96-13.4,2.16-.68.2-9.12,8.91-10.37,9.51-.7.34-3.12-2.04-3.89-.43-.38.8,5.44,3.69,3.46,6.92-16.96-3.24-5.43,10.16-6.05,13.83-.17,1.03-13.02,13.63-12.97,16.43,0,.22,2.46,2.53,2.59,3.46.59,3.94,1.61,15.55,5.62,16.86s23.34-3.13,25.5,2.16c.55,1.34-2.66,5.13-1.73,8.64.32,1.2,5.64,5.66,6.05,9.51.66,6.22-2.91,6.63-3.46,9.51-.25,1.34,4.62,25.43,5.62,26.37,4.54,4.29,18.11-9.98,20.32-14.26.5-.96-.49-4.88,0-6.05,1.05-2.53,6.79-2.9,7.78-6.05,1.49-4.76-2.5-11.48-.86-16.43,1.8-5.45,15.72-9.77,13.4-18.59-6.98,5.06-22.93-25.58-22.04-27.23,1.12-2.1,2.86.89,3.46,1.73,1.94,2.72,9.71,18.56,11.67,19.45,4.32,1.95,20.27-9.92,13.83-13.83-.65-.39-12.98.89-9.51-6.92,15.58,5.7,14.64,12.38,12.53,28.1-8.39,62.6-85.7,97.13-137.45,62.24,12.02-4.46,4.56-4.84,5.19-7.78.12-.57,7-5.31,8.64-7.78.43-.65-.44-4.41,0-5.19,1.43-2.55,10.66-6.34,11.24-8.64.55-2.16-1.51-4.13-.86-6.05.86-2.57,5.93-7.03,4.32-10.37-.21-.43-7.77-4.57-8.21-4.75-.51-.21-8.59-.38-10.37-1.73s-1.42-4.73-4.32-6.92c-3.44-2.6-19.11-12.33-22.48-11.24-.33.11-2.66,5.07-3.46,5.19-.21.03-2.58-2.53-3.46-2.59-2.68-.2-2.83,1.95-4.32,1.73-.55-.08-6.39-8.53-6.48-9.08-.25-1.45,5-9.42-2.16-5.62-2.21,1.17-1.96,6.88-6.48,2.16-1.04-14.17,10.89-18.79,17.72-6.48-2.42-10,13.4-25.37,21.61-28.53.49-.19,6.28,3.35,8.21-2.16-2.88-1.48-5.39,2.19-5.62-3.89l9.94-2.16c-.76-1.29-3.51-8.77-3.89-9.08-.76-.62-1.76,1.42-2.59.86-13.52-9.03-7.26.4-15.56,9.51.48-3.9-5.55-8.39-5.62-9.08-.29-2.84,5.4-5.46,6.92-6.92,1.78-1.71.72-3.35.86-3.46,4.45-3.34,16.69-3.25,10.81,3.03-8.72-7.13-2.58,4.8,3.46,3.46.42-.09,5.83-6.04,5.62-6.48-1.15-2.41-8.55-6.39-11.67-4.75,8.52-6.96,25.77-12.66,37.17-13.83Z"/>
            <g>
              <path class="cls-3" d="M241.71,41.49c6.69-.25,14.93-.37,21.18,2.16-7.42-.77-7.16,8.14-10.81,9.94-2.21,1.09-10.76,1.86-13.83,3.46-2.83,1.47-11.65,13.49-13.4,2.16-.86-5.56,3.6-3.79,3.46-6.05-.12-1.93-7.48-6.26-8.64-7.78.48-1.54,19.45-3.79,22.04-3.89Z"/>
              <path class="cls-3" d="M270.24,67.43l8.21,7.35c-5.03,4.79-6.79,1.85-4.75-3.89-1.68-.82-3.88,9.08-7.35,4.75-1.11-1.38,6.1-6.19,3.89-8.21Z"/>
              <path class="cls-3" d="M256.41,54.46c11.45-.02-1.36,7.62-6.48,2.16,0-.83,5.97-2.16,6.48-2.16Z"/>
              <path class="cls-3" d="M179.47,112.38c2.28-.53,7.66,2.6,9.08,4.75-3.27,4.86-3.19-4.63-9.94-3.03-.86-.44.66-1.68.86-1.73Z"/>
              <path class="cls-3" d="M218.37,76.07c2.82.06,3.88,3.56,2.59,4.32-2.32,1.37-10.61-4.51-2.59-4.32Z"/>
              <path class="cls-3" d="M189.84,114.98c.45-.21,3.58,1.1,3.03,2.16-1.5,1.8-4.75-1.37-3.03-2.16Z"/>
              <path class="cls-3" d="M199.35,58.78c1.31-.48,1.9,1.27.86,1.73-1.27.56-1.91-1.35-.86-1.73Z"/>
            </g>
          </g>
        </g>
      </g>
    </g>
  </g>
</svg>